<?xml version="1.0" encoding="UTF-8"?>
<svg version="1.1" xmlns="http://www.w3.org/2000/svg" width="249" height="245">
<path d="M0 0 C3.94652431 6.01937984 4.40960861 12.28502449 3.50683594 19.30273438 C1.08337775 29.17005062 -7.51087523 35.73192011 -15.23925781 41.68554688 C-16.10852905 42.51807983 -16.10852905 42.51807983 -16.99536133 43.36743164 C-20.30004334 45.30867614 -23.52919068 45.07561869 -27.25097656 45.01367188 C-28.01980667 45.01179871 -28.78863678 45.00992554 -29.58076477 45.00799561 C-31.20045327 45.00128886 -32.82012595 44.9874017 -34.43969727 44.96679688 C-36.92837444 44.93552656 -39.41641891 44.92581324 -41.90527344 44.91992188 C-43.47884893 44.91075625 -45.05241795 44.90038189 -46.62597656 44.88867188 C-47.37384933 44.884422 -48.12172211 44.88017212 -48.89225769 44.87579346 C-54.12207031 44.80273438 -54.12207031 44.80273438 -55.23925781 43.68554688 C-55.32577392 42.26984564 -55.34630685 40.84995187 -55.33691406 39.43164062 C-55.33369141 38.57763672 -55.33046875 37.72363281 -55.32714844 36.84375 C-55.31876953 35.94591797 -55.31039062 35.04808594 -55.30175781 34.12304688 C-55.29724609 33.22134766 -55.29273437 32.31964844 -55.28808594 31.390625 C-55.27626006 29.15553374 -55.25978001 26.92057251 -55.23925781 24.68554688 C-52.22712752 23.17948173 -49.1264316 23.56394357 -45.82519531 23.58789062 C-45.09555573 23.58930557 -44.36591614 23.59072052 -43.61416626 23.59217834 C-41.28082196 23.59778157 -38.94757317 23.61033453 -36.61425781 23.62304688 C-35.03353003 23.62806146 -33.45280075 23.63262444 -31.87207031 23.63671875 C-27.99442927 23.64775203 -24.11685974 23.66501877 -20.23925781 23.68554688 C-20.06910683 21.66500393 -19.90331125 19.64409403 -19.73925781 17.62304688 C-19.60003906 15.93501953 -19.60003906 15.93501953 -19.45800781 14.21289062 C-19.24075869 10.70974849 -19.23925781 7.19541895 -19.23925781 3.68554688 C-39.53425781 3.19054687 -39.53425781 3.19054687 -60.23925781 2.68554688 C-59.89121094 9.2675 -59.89121094 9.2675 -59.53613281 15.98242188 C-59.40698355 19.5419297 -59.29873791 23.10075251 -59.20425415 26.6612854 C-59.0997029 30.39017976 -58.96097558 34.10959572 -58.73046875 37.83300781 C-57.14188027 64.16605481 -57.14188027 64.16605481 -64.74511719 73.2265625 C-69.43831406 78.25720173 -74.53782397 82.81996932 -80.23925781 86.68554688 C-80.56925781 86.68554688 -80.89925781 86.68554688 -81.23925781 86.68554688 C-81.23925781 52.36554688 -81.23925781 18.04554687 -81.23925781 -17.31445312 C-66.54394531 -17.65476563 -66.54394531 -17.65476563 -51.55175781 -18.00195312 C-46.92140503 -18.12123169 -46.92140503 -18.12123169 -42.19750977 -18.24291992 C-39.74921085 -18.29273055 -37.30088818 -18.34139283 -34.85253906 -18.38867188 C-33.58261108 -18.42561157 -32.31268311 -18.46255127 -31.00427246 -18.50061035 C-29.78671265 -18.52127563 -28.56915283 -18.54194092 -27.31469727 -18.56323242 C-26.25990677 -18.58765915 -25.20511627 -18.61208588 -24.11836243 -18.63725281 C-14.75148418 -17.5870564 -5.64020226 -6.88985877 0 0 Z " fill="#FBFBFB" transform="translate(144.2392578125,66.314453125)"/>
<path d="M0 0 C1.26092972 0.00212242 1.26092972 0.00212242 2.54733276 0.00428772 C5.23732025 0.00989388 7.92722509 0.02244739 10.6171875 0.03515625 C12.43880088 0.04017046 14.26041557 0.0447335 16.08203125 0.04882812 C20.55211527 0.05986531 25.02213736 0.07713405 29.4921875 0.09765625 C29.4921875 3.09765625 29.4921875 3.09765625 28.09375 4.53515625 C27.44148438 5.05078125 26.78921875 5.56640625 26.1171875 6.09765625 C23.42457069 8.26386182 21.44493448 10.16440339 19.4375 13 C13.94228779 20.59747311 13.94228779 20.59747311 9.09082031 21.58789062 C3.20509546 22.05463781 -2.64383402 21.70795386 -8.5078125 21.09765625 C-8.35856323 21.94807495 -8.35856323 21.94807495 -8.20629883 22.81567383 C-7.01548232 30.70076726 -5.91742947 38.98879663 -10.34033203 46.00439453 C-15.33699969 51.98215741 -21.1357122 57.58809704 -27.5078125 62.09765625 C-28.1678125 62.09765625 -28.8278125 62.09765625 -29.5078125 62.09765625 C-32.80800557 23.19813357 -32.80800557 23.19813357 -25.34765625 13.11328125 C-17.73626862 4.96884021 -11.15885073 -0.07016122 0 0 Z " fill="#FAFAFA" transform="translate(162.5078125,89.90234375)"/>
<path d="M0 0 C24.75 0 49.5 0 75 0 C71.625 10.125 71.625 10.125 69.3125 15.0625 C68.87550781 16.00222656 68.43851562 16.94195312 67.98828125 17.91015625 C67.66214844 18.59980469 67.33601563 19.28945312 67 20 C60.219067 20.07596188 53.4382434 20.1285625 46.65698242 20.16479492 C44.34932352 20.17989676 42.04169339 20.20037969 39.73413086 20.22631836 C36.42033801 20.26263975 33.10692408 20.27971236 29.79296875 20.29296875 C28.24128242 20.31619453 28.24128242 20.31619453 26.6582489 20.33988953 C25.6974794 20.34011612 24.7367099 20.34034271 23.74682617 20.34057617 C22.90077316 20.34723801 22.05472015 20.35389984 21.18302917 20.36076355 C18.5082618 19.91873621 17.61015659 19.14591583 16 17 C16 16.34 16 15.68 16 15 C15.46890625 14.79503906 14.9378125 14.59007812 14.390625 14.37890625 C10.98175578 12.4126794 8.48804099 9.73776919 5.75 6.9375 C5.19570312 6.38255859 4.64140625 5.82761719 4.0703125 5.25585938 C0 1.14043257 0 1.14043257 0 0 Z " fill="#FBFBFB" transform="translate(133,49)"/>
<path d="M0 0 C3.26023324 0.22484367 4.93132641 0.5260489 7.625 2.25 C7.625 5.25 7.625 8.25 7.625 11.25 C7.955 11.91 8.285 12.57 8.625 13.25 C6.975 13.25 5.325 13.25 3.625 13.25 C3.295 12.59 2.965 11.93 2.625 11.25 C1.635 10.92 0.645 10.59 -0.375 10.25 C-0.705 11.24 -1.035 12.23 -1.375 13.25 C-2.695 13.25 -4.015 13.25 -5.375 13.25 C-5.42891993 11.45866022 -5.46775571 9.66686101 -5.5 7.875 C-5.52320313 6.87726563 -5.54640625 5.87953125 -5.5703125 4.8515625 C-5.25862165 0.69984037 -4.03853923 0.29915105 0 0 Z M-1.375 4.25 C-1.045 5.24 -0.715 6.23 -0.375 7.25 C1.275 6.92 2.925 6.59 4.625 6.25 C4.625 5.59 4.625 4.93 4.625 4.25 C2.645 4.25 0.665 4.25 -1.375 4.25 Z " fill="#FCFCFC" transform="translate(61.375,177.75)"/>
<path d="M0 0 C0 0.99 0 1.98 0 3 C-2.64 3.33 -5.28 3.66 -8 4 C-8 5.32 -8 6.64 -8 8 C-7.01 8 -6.02 8 -5 8 C-5.66 7.67 -6.32 7.34 -7 7 C-7 6.01 -7 5.02 -7 4 C-4.36 4 -1.72 4 1 4 C1 6.31 1 8.62 1 11 C-2.12706959 12.5635348 -5.57982443 12.39958487 -9 12 C-12 10 -12 10 -12.875 7.6875 C-13.0368003 4.20879345 -12.11509016 2.71940163 -10 0 C-6.30581799 -1.231394 -3.7943739 -0.64432764 0 0 Z " fill="#FCFCFC" transform="translate(207,179)"/>
<path d="M0 0 C2.99324263 1.0975223 3.84610901 1.67682892 5.25 4.625 C5.4975 5.40875 5.745 6.1925 6 7 C6.66 7 7.32 7 8 7 C8.268125 6.21625 8.53625 5.4325 8.8125 4.625 C10 2 10 2 13 0 C14 1 14 1 14.09765625 3.72265625 C14.08605469 4.82480469 14.07445313 5.92695313 14.0625 7.0625 C14.05347656 8.16722656 14.04445313 9.27195313 14.03515625 10.41015625 C14.02355469 11.26480469 14.01195313 12.11945313 14 13 C13.01 13 12.02 13 11 13 C10.67 11.68 10.34 10.36 10 9 C9.01 10.485 9.01 10.485 8 12 C5 11 5 11 3 8 C2.67 9.65 2.34 11.3 2 13 C1.01 13 0.02 13 -1 13 C-1.02686553 11.02090602 -1.04633375 9.04171029 -1.0625 7.0625 C-1.07410156 5.96035156 -1.08570312 4.85820312 -1.09765625 3.72265625 C-1 1 -1 1 0 0 Z " fill="#FBFBFB" transform="translate(91,178)"/>
<path d="M0 0 C2.0078125 0.23046875 2.0078125 0.23046875 5.0078125 2.23046875 C5.26441344 5.30968007 5.40212754 7.44183868 4.0078125 10.23046875 C4.6678125 10.56046875 5.3278125 10.89046875 6.0078125 11.23046875 C6.0078125 11.89046875 6.0078125 12.55046875 6.0078125 13.23046875 C4.3578125 13.23046875 2.7078125 13.23046875 1.0078125 13.23046875 C0.6778125 12.24046875 0.3478125 11.25046875 0.0078125 10.23046875 C-0.9821875 10.23046875 -1.9721875 10.23046875 -2.9921875 10.23046875 C-3.3221875 11.22046875 -3.6521875 12.21046875 -3.9921875 13.23046875 C-4.9821875 13.23046875 -5.9721875 13.23046875 -6.9921875 13.23046875 C-7.01905303 11.25137477 -7.03852125 9.27217904 -7.0546875 7.29296875 C-7.06628906 6.19082031 -7.07789063 5.08867187 -7.08984375 3.953125 C-6.9105326 -1.04606986 -4.43703062 0.09005044 0 0 Z M-3.9921875 4.23046875 C-3.9921875 4.89046875 -3.9921875 5.55046875 -3.9921875 6.23046875 C-2.0121875 6.23046875 -0.0321875 6.23046875 2.0078125 6.23046875 C2.0078125 5.57046875 2.0078125 4.91046875 2.0078125 4.23046875 C0.0278125 4.23046875 -1.9521875 4.23046875 -3.9921875 4.23046875 Z " fill="#FCFCFC" transform="translate(185.9921875,177.76953125)"/>
<path d="M0 0 C2 1.6875 2 1.6875 3 4 C2.875 7.125 2.875 7.125 2 10 C-1.81589878 12.54393252 -4.5299647 12.57737956 -9 12 C-11 10.9375 -11 10.9375 -12 9 C-12.5 5.5 -12.5 5.5 -12 2 C-8.22350295 -1.66205774 -4.88746965 -1.35763046 0 0 Z M-8 3 C-8.6814823 4.89179203 -8.6814823 4.89179203 -9 7 C-7.16116119 9.28728734 -7.16116119 9.28728734 -4.375 9.125 C-3.59125 9.08375 -2.8075 9.0425 -2 9 C-1.61781233 7.34385343 -1.28604898 5.67542976 -1 4 C-2.12534105 2.64381501 -2.12534105 2.64381501 -5.0625 2.9375 C-6.031875 2.958125 -7.00125 2.97875 -8 3 Z " fill="#FCFCFC" transform="translate(173,179)"/>
<path d="M0 0 C-0.33 2.64 -0.66 5.28 -1 8 C-3.31 8 -5.62 8 -8 8 C-8 8.66 -8 9.32 -8 10 C-5.36 10 -2.72 10 0 10 C0 10.99 0 11.98 0 13 C-1.81242052 13.02687279 -3.62495233 13.04633715 -5.4375 13.0625 C-6.44683594 13.07410156 -7.45617187 13.08570313 -8.49609375 13.09765625 C-11 13 -11 13 -12 12 C-12.09823937 10.33570949 -12.12973631 8.66718069 -12.125 7 C-12.12757813 6.0925 -12.13015625 5.185 -12.1328125 4.25 C-12 2 -12 2 -11 1 C-7.27655361 0.45949972 -3.75944015 0 0 0 Z " fill="#FCFCFC" transform="translate(223,178)"/>
<path d="M0 0 C3.62716299 0.02604785 5.54755703 0.61005703 8.1875 3.25 C7.4375 8 7.4375 8 5.1875 10.25 C1.5625 10.375 1.5625 10.375 -1.8125 10.25 C-1.8125 11.24 -1.8125 12.23 -1.8125 13.25 C-2.8025 13.25 -3.7925 13.25 -4.8125 13.25 C-4.83936553 11.27090602 -4.85883375 9.29171029 -4.875 7.3125 C-4.88660156 6.21035156 -4.89820312 5.10820312 -4.91015625 3.97265625 C-4.75857999 -0.2532899 -4.41384738 0.28943262 0 0 Z M-1.8125 4.25 C-0.8225 5.735 -0.8225 5.735 0.1875 7.25 C1.5075 6.92 2.8275 6.59 4.1875 6.25 C4.1875 5.59 4.1875 4.93 4.1875 4.25 C2.2075 4.25 0.2275 4.25 -1.8125 4.25 Z " fill="#FBFBFB" transform="translate(113.8125,177.75)"/>
<path d="M0 0 C1.9375 1.125 1.9375 1.125 3 3 C2.875 6.5625 2.875 6.5625 2 10 C-1.7205836 12.48038907 -3.59796571 12.46337203 -8 12 C-10.4375 10.3125 -10.4375 10.3125 -12 8 C-12.4375 5.4375 -12.4375 5.4375 -12 3 C-8.70566656 -1.39244458 -5.02342522 -1.25585631 0 0 Z M-8 3 C-8.33 3.99 -8.66 4.98 -9 6 C-8.01 7.485 -8.01 7.485 -7 9 C-4.41619823 9.25030977 -4.41619823 9.25030977 -2 9 C-0.89163577 7.11683841 -0.89163577 7.11683841 0 5 C-0.33 4.34 -0.66 3.68 -1 3 C-3.31 3 -5.62 3 -8 3 Z " fill="#FBFBFB" transform="translate(84,179)"/>
<path d="M0 0 C5.18659256 0.26372505 5.18659256 0.26372505 7.6875 2.1875 C8.625 4.0625 8.625 4.0625 8.6875 6.1875 C7.625 8.4375 7.625 8.4375 5.6875 10.1875 C2.5 10.4375 2.5 10.4375 -0.3125 10.1875 C-0.6425 11.1775 -0.9725 12.1675 -1.3125 13.1875 C-2.3025 13.1875 -3.2925 13.1875 -4.3125 13.1875 C-4.33936553 11.20840602 -4.35883375 9.22921029 -4.375 7.25 C-4.38660156 6.14785156 -4.39820313 5.04570312 -4.41015625 3.91015625 C-4.267133 -0.07733193 -4.07255892 0.2305222 0 0 Z M-1.3125 4.1875 C-0.3225 5.6725 -0.3225 5.6725 0.6875 7.1875 C2.0075 6.8575 3.3275 6.5275 4.6875 6.1875 C4.6875 5.5275 4.6875 4.8675 4.6875 4.1875 C2.7075 4.1875 0.7275 4.1875 -1.3125 4.1875 Z " fill="#FCFCFC" transform="translate(45.3125,177.8125)"/>
<path d="M0 0 C1.23556641 0.01740234 1.23556641 0.01740234 2.49609375 0.03515625 C3.32238281 0.04417969 4.14867187 0.05320313 5 0.0625 C5.63808594 0.07410156 6.27617187 0.08570313 6.93359375 0.09765625 C7.90950958 3.48083112 7.7921603 5.66339005 6.93359375 9.09765625 C4.62359375 9.09765625 2.31359375 9.09765625 -0.06640625 9.09765625 C-0.06640625 10.41765625 -0.06640625 11.73765625 -0.06640625 13.09765625 C-1.05640625 13.09765625 -2.04640625 13.09765625 -3.06640625 13.09765625 C-3.09327178 11.11856227 -3.11274 9.13936654 -3.12890625 7.16015625 C-3.14050781 6.05800781 -3.15210938 4.95585937 -3.1640625 3.8203125 C-3.03217531 0.14329751 -3.03217531 0.14329751 0 0 Z " fill="#FAFAFA" transform="translate(150.06640625,177.90234375)"/>
<path d="M0 0 C2.97 0 5.94 0 9 0 C9.33 1.98 9.66 3.96 10 6 C9.34 6 8.68 6 8 6 C8.66 7.65 9.32 9.3 10 11 C6.73045798 10.43628586 5.17424117 9.50037734 3 7 C2.67 8.32 2.34 9.64 2 11 C1.34 11 0.68 11 0 11 C0 7.37 0 3.74 0 0 Z M3 2 C2.67 2.66 2.34 3.32 2 4 C3.65 4 5.3 4 7 4 C5.68 3.34 4.36 2.68 3 2 Z " fill="#F4F8F7" transform="translate(176,199)"/>
<path d="M0 0 C2.97 0 5.94 0 9 0 C9 0.99 9 1.98 9 3 C7.7934375 2.9690625 7.7934375 2.9690625 6.5625 2.9375 C4.06645115 2.70366379 4.06645115 2.70366379 3 4 C4.98 4 6.96 4 9 4 C9 4.66 9 5.32 9 6 C7.02 6.66 5.04 7.32 3 8 C4.98 8 6.96 8 9 8 C9 8.99 9 9.98 9 11 C2.84765625 11.09765625 2.84765625 11.09765625 1 11 C0 10 0 10 -0.09765625 7.71484375 C-0.08605469 6.79832031 -0.07445313 5.88179687 -0.0625 4.9375 C-0.05347656 4.01839844 -0.04445313 3.09929687 -0.03515625 2.15234375 C-0.02355469 1.44207031 -0.01195313 0.73179687 0 0 Z " fill="#FDFDFD" transform="translate(78,199)"/>
<path d="M0 0 C0 0.99 0 1.98 0 3 C-2.31 3 -4.62 3 -7 3 C-7 4.65 -7 6.3 -7 8 C-6.34 7.67 -5.68 7.34 -5 7 C-5 6.01 -5 5.02 -5 4 C-3.02 4 -1.04 4 1 4 C1.1875 6.375 1.1875 6.375 1 9 C-2 11 -2 11 -5.0625 10.75 C-8 10 -8 10 -10 8 C-9.75 4.4375 -9.75 4.4375 -9 1 C-6.04335481 -0.4783226 -3.25770263 -0.06032783 0 0 Z " fill="#F5F8F7" transform="translate(118,199)"/>
<path d="M0 0 C2.97 0 5.94 0 9 0 C8.67 0.99 8.34 1.98 8 3 C6.35 3 4.7 3 3 3 C4.65 3.33 6.3 3.66 8 4 C8.33 6.31 8.66 8.62 9 11 C6.03 11 3.06 11 0 11 C0 7.37 0 3.74 0 0 Z " fill="#F4F7F6" transform="translate(148,199)"/>
<path d="M0 0 C2.97 0 5.94 0 9 0 C8.67 0.99 8.34 1.98 8 3 C6.35 3 4.7 3 3 3 C4.65 3.33 6.3 3.66 8 4 C8.38133299 5.9914056 8.71325582 7.99279077 9 10 C8 11 8 11 6.15234375 11.09765625 C4.1015625 11.06510417 2.05078125 11.03255208 0 11 C0 7.37 0 3.74 0 0 Z " fill="#F3F5F5" transform="translate(162,199)"/>
<path d="M0 0 C4.29425875 1.07356469 4.74740471 1.5084773 7 5 C7.33 3.35 7.66 1.7 8 0 C8.99 0.33 9.98 0.66 11 1 C10.67 4.3 10.34 7.6 10 11 C6 9 6 9 4 6 C3.34 7.65 2.68 9.3 2 11 C1.34 11 0.68 11 0 11 C0 7.37 0 3.74 0 0 Z " fill="#F5F8F7" transform="translate(132,199)"/>
<path d="M0 0 C3.3 0 6.6 0 10 0 C10.33 1.32 10.66 2.64 11 4 C9.68 4 8.36 4 7 4 C7 6.97 7 9.94 7 13 C5.68 13 4.36 13 3 13 C3 10.03 3 7.06 3 4 C1.68 4 0.36 4 -1 4 C-0.67 2.68 -0.34 1.36 0 0 Z " fill="#FDFDFD" transform="translate(125,178)"/>
<path d="M0 0 C4 2 4 2 6 4 C6.33 2.68 6.66 1.36 7 0 C7.99 0 8.98 0 10 0 C10 3.3 10 6.6 10 10 C7 10 7 10 4.8125 8 C4.214375 7.34 3.61625 6.68 3 6 C2.67 7.65 2.34 9.3 2 11 C1.34 11 0.68 11 0 11 C0 7.37 0 3.74 0 0 Z " fill="#F6F7F6" transform="translate(93,199)"/>
<path d="M0 0 C11.55 0 23.1 0 35 0 C35 0.66 35 1.32 35 2 C23.45 2 11.9 2 0 2 C0 1.34 0 0.68 0 0 Z " fill="#F1F1F1" transform="translate(114,235)"/>
<path d="M0 0 C1.134375 0.020625 2.26875 0.04125 3.4375 0.0625 C3.4375 0.7225 3.4375 1.3825 3.4375 2.0625 C1.4575 2.7225 -0.5225 3.3825 -2.5625 4.0625 C-0.5825 4.0625 1.3975 4.0625 3.4375 4.0625 C3.4375 4.7225 3.4375 5.3825 3.4375 6.0625 C1.1275 6.0625 -1.1825 6.0625 -3.5625 6.0625 C-3.94468767 4.40635343 -4.27645102 2.73792976 -4.5625 1.0625 C-3.5625 0.0625 -3.5625 0.0625 0 0 Z " fill="#EDF0EE" transform="translate(83.5625,202.9375)"/>
<path d="M0 0 C4.29 0 8.58 0 13 0 C12.01 0.495 12.01 0.495 11 1 C11 1.66 11 2.32 11 3 C4.78675502 3.73030908 -0.84098757 4.23180249 -7 3 C-7 2.67 -7 2.34 -7 2 C-3.535 1.505 -3.535 1.505 0 1 C0 0.67 0 0.34 0 0 Z " fill="#F2F4F3" transform="translate(112,107)"/>
<path d="M0 0 C0.99 0 1.98 0 3 0 C3 3.3 3 6.6 3 10 C2.01 10 1.02 10 0 10 C-0.66 9.01 -1.32 8.02 -2 7 C-1.125 3.3125 -1.125 3.3125 0 0 Z " fill="#FCFCFC" transform="translate(100,199)"/>
<path d="M0 0 C0.99 0.33 1.98 0.66 3 1 C3.125 8.75 3.125 8.75 2 11 C1.34 11 0.68 11 0 11 C0 7.37 0 3.74 0 0 Z " fill="#FAFCFC" transform="translate(124,199)"/>
<path d="M0 0 C2.31 0 4.62 0 7 0 C7.66 1.98 8.32 3.96 9 6 C7.0625 5.625 7.0625 5.625 5 5 C4.67 4.34 4.34 3.68 4 3 C2.68 3.33 1.36 3.66 0 4 C0 2.68 0 1.36 0 0 Z " fill="#EDF3F3" transform="translate(177,204)"/>
<path d="M0 0 C0.99 0 1.98 0 3 0 C3.33 1.98 3.66 3.96 4 6 C1.36 6 -1.28 6 -4 6 C-4.33 5.34 -4.66 4.68 -5 4 C-4.175 3.525625 -3.35 3.05125 -2.5 2.5625 C-1.2625 1.7890625 -1.2625 1.7890625 0 1 C0 0.67 0 0.34 0 0 Z " fill="#FBFDFC" transform="translate(182,199)"/>
<path d="M0 0 C0.66 0.33 1.32 0.66 2 1 C4.71262116 1.2322646 7.40773126 1.41936235 10.125 1.5625 C11.25615234 1.62727539 11.25615234 1.62727539 12.41015625 1.69335938 C14.27321888 1.7994832 16.13658524 1.90025001 18 2 C18 2.33 18 2.66 18 3 C15.04142591 3.05379226 12.08382279 3.09357093 9.125 3.125 C7.86236328 3.15013672 7.86236328 3.15013672 6.57421875 3.17578125 C5.76855469 3.18222656 4.96289062 3.18867187 4.1328125 3.1953125 C3.38918457 3.20578613 2.64555664 3.21625977 1.87939453 3.22705078 C0 3 0 3 -2 1 C-1.34 0.67 -0.68 0.34 0 0 Z " fill="#F0F0F0" transform="translate(92,105)"/>
<path d="M0 0 C0.99 0.66 1.98 1.32 3 2 C0.58301501 3.94918144 -1.18746401 5.00815254 -4.3359375 4.9765625 C-6.57364473 4.71537901 -8.78327805 4.40084514 -11 4 C-11 3.67 -11 3.34 -11 3 C-8.02148438 2.70703125 -8.02148438 2.70703125 -5.04296875 2.4140625 C-2.70011858 2.07334609 -2.70011858 2.07334609 0 0 Z " fill="#F0F1F0" transform="translate(171,106)"/>
<path d="M0 0 C1.98 0 3.96 0 6 0 C6 0.99 6 1.98 6 3 C3.69 3 1.38 3 -1 3 C-0.67 2.01 -0.34 1.02 0 0 Z " fill="#F5F7F6" transform="translate(81,199)"/>
</svg>
